<?xml version="1.0" encoding="UTF-8" standalone="no"?>
<!DOCTYPE svg PUBLIC "-//W3C//DTD SVG 1.1//EN"
 "http://www.w3.org/Graphics/SVG/1.1/DTD/svg11.dtd">
<!-- Generated by graphviz version 2.40.1 (20161225.0304)
 -->
<!-- Title: dependencies Pages: 1 -->
<svg width="1844pt" height="284pt"
 viewBox="0.00 0.00 1844.00 284.00" xmlns="http://www.w3.org/2000/svg" xmlns:xlink="http://www.w3.org/1999/xlink">
<g id="graph0" class="graph" transform="scale(1 1) rotate(0) translate(4 280)">
<title>dependencies</title>
<polygon fill="#ffffff" stroke="transparent" points="-4,4 -4,-280 1840,-280 1840,4 -4,4"/>
<text text-anchor="start" x="897.0091" y="-42.4" font-family="sans-serif" font-weight="bold" font-size="14.00" fill="#000000">Legend</text>
<polygon fill="#ffffb3" stroke="transparent" points="684,-10 684,-30 704,-30 704,-10 684,-10"/>
<text text-anchor="start" x="707.629" y="-15.4" font-family="sans-serif" font-size="14.00" fill="#000000"> &#160;Declarations</text>
<polygon fill="#8dd3c7" stroke="transparent" points="797,-10 797,-30 817,-30 817,-10 797,-10"/>
<text text-anchor="start" x="820.7251" y="-15.4" font-family="sans-serif" font-size="14.00" fill="#000000"> &#160;Module</text>
<polygon fill="#80b1d3" stroke="transparent" points="883,-10 883,-30 903,-30 903,-10 883,-10"/>
<text text-anchor="start" x="906.7812" y="-15.4" font-family="sans-serif" font-size="14.00" fill="#000000"> &#160;Bootstrap</text>
<polygon fill="#fdb462" stroke="transparent" points="980,-10 980,-30 1000,-30 1000,-10 980,-10"/>
<text text-anchor="start" x="1003.6732" y="-15.4" font-family="sans-serif" font-size="14.00" fill="#000000"> &#160;Providers</text>
<polygon fill="#fb8072" stroke="transparent" points="1076,-10 1076,-30 1096,-30 1096,-10 1076,-10"/>
<text text-anchor="start" x="1099.7258" y="-15.4" font-family="sans-serif" font-size="14.00" fill="#000000"> &#160;Exports</text>
<g id="clust1" class="cluster">
<title>cluster_MaterialModule</title>
<polygon fill="none" stroke="#000000" stroke-dasharray="1,5" points="8,-70 8,-268 1828,-268 1828,-70 8,-70"/>
</g>
<g id="clust3" class="cluster">
<title>cluster_MaterialModule_imports</title>
<polygon fill="none" stroke="#000000" points="38,-78 38,-130 1797,-130 1797,-78 38,-78"/>
</g>
<g id="clust4" class="cluster">
<title>cluster_MaterialModule_exports</title>
<polygon fill="none" stroke="#000000" points="16,-208 16,-260 1820,-260 1820,-208 16,-208"/>
</g>
<!-- MatButtonModule -->
<g id="node1" class="node">
<title>MatButtonModule</title>
<polygon fill="#8dd3c7" stroke="#000000" points="1789.2176,-122 1786.2176,-126 1765.2176,-126 1762.2176,-122 1668.7824,-122 1668.7824,-86 1789.2176,-86 1789.2176,-122"/>
<text text-anchor="middle" x="1729" y="-99.8" font-family="Times,serif" font-size="14.00" fill="#000000">MatButtonModule</text>
</g>
<!-- MaterialModule -->
<g id="node14" class="node">
<title>MaterialModule</title>
<polygon fill="#8dd3c7" stroke="#000000" points="963.4706,-187 960.4706,-191 939.4706,-191 936.4706,-187 856.5294,-187 856.5294,-151 963.4706,-151 963.4706,-187"/>
<text text-anchor="middle" x="910" y="-164.8" font-family="Times,serif" font-size="14.00" fill="#000000">MaterialModule</text>
</g>
<!-- MatButtonModule&#45;&gt;MaterialModule -->
<g id="edge1" class="edge">
<title>MatButtonModule&#45;&gt;MaterialModule</title>
<path fill="none" stroke="#000000" d="M1679.1354,-122.1686C1679.1354,-141.0898 1679.1354,-168 1679.1354,-168 1679.1354,-168 973.4735,-168 973.4735,-168"/>
<polygon fill="#000000" stroke="#000000" points="973.4735,-164.5001 963.4735,-168 973.4734,-171.5001 973.4735,-164.5001"/>
</g>
<!-- MatMenuModule -->
<g id="node2" class="node">
<title>MatMenuModule</title>
<polygon fill="#8dd3c7" stroke="#000000" points="1651.2591,-122 1648.2591,-126 1627.2591,-126 1624.2591,-122 1536.7409,-122 1536.7409,-86 1651.2591,-86 1651.2591,-122"/>
<text text-anchor="middle" x="1594" y="-99.8" font-family="Times,serif" font-size="14.00" fill="#000000">MatMenuModule</text>
</g>
<!-- MatMenuModule&#45;&gt;MaterialModule -->
<g id="edge2" class="edge">
<title>MatMenuModule&#45;&gt;MaterialModule</title>
<path fill="none" stroke="#000000" d="M1544.2456,-122.302C1544.2456,-140.2699 1544.2456,-165 1544.2456,-165 1544.2456,-165 973.5288,-165 973.5288,-165"/>
<polygon fill="#000000" stroke="#000000" points="973.5288,-161.5001 963.5288,-165 973.5288,-168.5001 973.5288,-161.5001"/>
</g>
<!-- MatToolbarModule -->
<g id="node3" class="node">
<title>MatToolbarModule</title>
<polygon fill="#8dd3c7" stroke="#000000" points="1518.4187,-122 1515.4187,-126 1494.4187,-126 1491.4187,-122 1391.5813,-122 1391.5813,-86 1518.4187,-86 1518.4187,-122"/>
<text text-anchor="middle" x="1455" y="-99.8" font-family="Times,serif" font-size="14.00" fill="#000000">MatToolbarModule</text>
</g>
<!-- MatToolbarModule&#45;&gt;MaterialModule -->
<g id="edge3" class="edge">
<title>MatToolbarModule&#45;&gt;MaterialModule</title>
<path fill="none" stroke="#000000" d="M1397.916,-122.0225C1397.916,-139.3734 1397.916,-163 1397.916,-163 1397.916,-163 973.6113,-163 973.6113,-163"/>
<polygon fill="#000000" stroke="#000000" points="973.6113,-159.5001 963.6113,-163 973.6112,-166.5001 973.6113,-159.5001"/>
</g>
<!-- MatIconModule -->
<g id="node4" class="node">
<title>MatIconModule</title>
<polygon fill="#8dd3c7" stroke="#000000" points="1373.4748,-122 1370.4748,-126 1349.4748,-126 1346.4748,-122 1266.5252,-122 1266.5252,-86 1373.4748,-86 1373.4748,-122"/>
<text text-anchor="middle" x="1320" y="-99.8" font-family="Times,serif" font-size="14.00" fill="#000000">MatIconModule</text>
</g>
<!-- MatIconModule&#45;&gt;MaterialModule -->
<g id="edge4" class="edge">
<title>MatIconModule&#45;&gt;MaterialModule</title>
<path fill="none" stroke="#000000" d="M1271.1376,-122.027C1271.1376,-138.3976 1271.1376,-160 1271.1376,-160 1271.1376,-160 973.676,-160 973.676,-160"/>
<polygon fill="#000000" stroke="#000000" points="973.676,-156.5001 963.676,-160 973.676,-163.5001 973.676,-156.5001"/>
</g>
<!-- MatCardModule -->
<g id="node5" class="node">
<title>MatCardModule</title>
<polygon fill="#8dd3c7" stroke="#000000" points="1248.8118,-122 1245.8118,-126 1224.8118,-126 1221.8118,-122 1139.1882,-122 1139.1882,-86 1248.8118,-86 1248.8118,-122"/>
<text text-anchor="middle" x="1194" y="-99.8" font-family="Times,serif" font-size="14.00" fill="#000000">MatCardModule</text>
</g>
<!-- MatCardModule&#45;&gt;MaterialModule -->
<g id="edge5" class="edge">
<title>MatCardModule&#45;&gt;MaterialModule</title>
<path fill="none" stroke="#000000" d="M1213.9686,-122.2396C1213.9686,-137.5706 1213.9686,-157 1213.9686,-157 1213.9686,-157 973.6438,-157 973.6438,-157"/>
<polygon fill="#000000" stroke="#000000" points="973.6438,-153.5001 963.6438,-157 973.6437,-160.5001 973.6438,-153.5001"/>
</g>
<!-- MatFormFieldModule -->
<g id="node6" class="node">
<title>MatFormFieldModule</title>
<polygon fill="#8dd3c7" stroke="#000000" points="1121.712,-122 1118.712,-126 1097.712,-126 1094.712,-122 980.288,-122 980.288,-86 1121.712,-86 1121.712,-122"/>
<text text-anchor="middle" x="1051" y="-99.8" font-family="Times,serif" font-size="14.00" fill="#000000">MatFormFieldModule</text>
</g>
<!-- MatFormFieldModule&#45;&gt;MaterialModule -->
<g id="edge6" class="edge">
<title>MatFormFieldModule&#45;&gt;MaterialModule</title>
<path fill="none" stroke="#000000" d="M1074.952,-122.0511C1074.952,-136.373 1074.952,-154 1074.952,-154 1074.952,-154 973.5552,-154 973.5552,-154"/>
<polygon fill="#000000" stroke="#000000" points="973.5552,-150.5001 963.5552,-154 973.5551,-157.5001 973.5552,-150.5001"/>
</g>
<!-- MatListModule -->
<g id="node7" class="node">
<title>MatListModule</title>
<polygon fill="#8dd3c7" stroke="#000000" points="961.8781,-122 958.8781,-126 937.8781,-126 934.8781,-122 858.1219,-122 858.1219,-86 961.8781,-86 961.8781,-122"/>
<text text-anchor="middle" x="910" y="-99.8" font-family="Times,serif" font-size="14.00" fill="#000000">MatListModule</text>
</g>
<!-- MatListModule&#45;&gt;MaterialModule -->
<g id="edge7" class="edge">
<title>MatListModule&#45;&gt;MaterialModule</title>
<path fill="none" stroke="#000000" d="M910,-122.1061C910,-122.1061 910,-140.991 910,-140.991"/>
<polygon fill="#000000" stroke="#000000" points="906.5001,-140.9909 910,-150.991 913.5001,-140.991 906.5001,-140.9909"/>
</g>
<!-- MatGridListModule -->
<g id="node8" class="node">
<title>MatGridListModule</title>
<polygon fill="#8dd3c7" stroke="#000000" points="839.5366,-122 836.5366,-126 815.5366,-126 812.5366,-122 710.4634,-122 710.4634,-86 839.5366,-86 839.5366,-122"/>
<text text-anchor="middle" x="775" y="-99.8" font-family="Times,serif" font-size="14.00" fill="#000000">MatGridListModule</text>
</g>
<!-- MatGridListModule&#45;&gt;MaterialModule -->
<g id="edge8" class="edge">
<title>MatGridListModule&#45;&gt;MaterialModule</title>
<path fill="none" stroke="#000000" d="M795.756,-122.0511C795.756,-136.373 795.756,-154 795.756,-154 795.756,-154 846.2233,-154 846.2233,-154"/>
<polygon fill="#000000" stroke="#000000" points="846.2233,-157.5001 856.2233,-154 846.2232,-150.5001 846.2233,-157.5001"/>
</g>
<!-- MatTabsModule -->
<g id="node9" class="node">
<title>MatTabsModule</title>
<polygon fill="#8dd3c7" stroke="#000000" points="692.8118,-122 689.8118,-126 668.8118,-126 665.8118,-122 583.1882,-122 583.1882,-86 692.8118,-86 692.8118,-122"/>
<text text-anchor="middle" x="638" y="-99.8" font-family="Times,serif" font-size="14.00" fill="#000000">MatTabsModule</text>
</g>
<!-- MatTabsModule&#45;&gt;MaterialModule -->
<g id="edge9" class="edge">
<title>MatTabsModule&#45;&gt;MaterialModule</title>
<path fill="none" stroke="#000000" d="M652.7186,-122.2396C652.7186,-137.5706 652.7186,-157 652.7186,-157 652.7186,-157 846.3786,-157 846.3786,-157"/>
<polygon fill="#000000" stroke="#000000" points="846.3786,-160.5001 856.3786,-157 846.3785,-153.5001 846.3786,-160.5001"/>
</g>
<!-- FormsModule -->
<g id="node10" class="node">
<title>FormsModule</title>
<polygon fill="#8dd3c7" stroke="#000000" points="565.8288,-122 562.8288,-126 541.8288,-126 538.8288,-122 470.1712,-122 470.1712,-86 565.8288,-86 565.8288,-122"/>
<text text-anchor="middle" x="518" y="-99.8" font-family="Times,serif" font-size="14.00" fill="#000000">FormsModule</text>
</g>
<!-- FormsModule&#45;&gt;MaterialModule -->
<g id="edge10" class="edge">
<title>FormsModule&#45;&gt;MaterialModule</title>
<path fill="none" stroke="#000000" d="M561.0391,-122.027C561.0391,-138.3976 561.0391,-160 561.0391,-160 561.0391,-160 846.2396,-160 846.2396,-160"/>
<polygon fill="#000000" stroke="#000000" points="846.2397,-163.5001 856.2396,-160 846.2396,-156.5001 846.2397,-163.5001"/>
</g>
<!-- ReactiveFormsModule -->
<g id="node11" class="node">
<title>ReactiveFormsModule</title>
<polygon fill="#8dd3c7" stroke="#000000" points="452.3047,-122 449.3047,-126 428.3047,-126 425.3047,-122 307.6953,-122 307.6953,-86 452.3047,-86 452.3047,-122"/>
<text text-anchor="middle" x="380" y="-99.8" font-family="Times,serif" font-size="14.00" fill="#000000">ReactiveFormsModule</text>
</g>
<!-- ReactiveFormsModule&#45;&gt;MaterialModule -->
<g id="edge11" class="edge">
<title>ReactiveFormsModule&#45;&gt;MaterialModule</title>
<path fill="none" stroke="#000000" d="M446.0272,-122.0225C446.0272,-139.3734 446.0272,-163 446.0272,-163 446.0272,-163 846.3232,-163 846.3232,-163"/>
<polygon fill="#000000" stroke="#000000" points="846.3232,-166.5001 856.3232,-163 846.3231,-159.5001 846.3232,-166.5001"/>
</g>
<!-- MatInputModule -->
<g id="node12" class="node">
<title>MatInputModule</title>
<polygon fill="#8dd3c7" stroke="#000000" points="289.6513,-122 286.6513,-126 265.6513,-126 262.6513,-122 178.3487,-122 178.3487,-86 289.6513,-86 289.6513,-122"/>
<text text-anchor="middle" x="234" y="-99.8" font-family="Times,serif" font-size="14.00" fill="#000000">MatInputModule</text>
</g>
<!-- MatInputModule&#45;&gt;MaterialModule -->
<g id="edge12" class="edge">
<title>MatInputModule&#45;&gt;MaterialModule</title>
<path fill="none" stroke="#000000" d="M282.2004,-122.302C282.2004,-140.2699 282.2004,-165 282.2004,-165 282.2004,-165 846.4742,-165 846.4742,-165"/>
<polygon fill="#000000" stroke="#000000" points="846.4742,-168.5001 856.4742,-165 846.4741,-161.5001 846.4742,-168.5001"/>
</g>
<!-- MatTableModule -->
<g id="node13" class="node">
<title>MatTableModule</title>
<polygon fill="#8dd3c7" stroke="#000000" points="159.972,-122 156.972,-126 135.972,-126 132.972,-122 46.028,-122 46.028,-86 159.972,-86 159.972,-122"/>
<text text-anchor="middle" x="103" y="-99.8" font-family="Times,serif" font-size="14.00" fill="#000000">MatTableModule</text>
</g>
<!-- MatTableModule&#45;&gt;MaterialModule -->
<g id="edge13" class="edge">
<title>MatTableModule&#45;&gt;MaterialModule</title>
<path fill="none" stroke="#000000" d="M150.5803,-122.1686C150.5803,-141.0898 150.5803,-168 150.5803,-168 150.5803,-168 846.2965,-168 846.2965,-168"/>
<polygon fill="#000000" stroke="#000000" points="846.2965,-171.5001 856.2965,-168 846.2965,-164.5001 846.2965,-171.5001"/>
</g>
<!-- MatButtonModule  -->
<g id="node15" class="node">
<title>MatButtonModule </title>
<polygon fill="#fb8072" stroke="#000000" points="1811.7177,-252 1688.2823,-252 1688.2823,-216 1811.7177,-216 1811.7177,-252"/>
<text text-anchor="middle" x="1750" y="-229.8" font-family="Times,serif" font-size="14.00" fill="#000000">MatButtonModule </text>
</g>
<!-- MaterialModule&#45;&gt;MatButtonModule  -->
<g id="edge14" class="edge">
<title>MaterialModule&#45;&gt;MatButtonModule </title>
<path fill="none" stroke="#000000" stroke-dasharray="5,2" d="M963.7299,-171C1147.3489,-171 1738.625,-171 1738.625,-171 1738.625,-171 1738.625,-205.7778 1738.625,-205.7778"/>
<polygon fill="#000000" stroke="#000000" points="1735.1251,-205.7778 1738.625,-215.7778 1742.1251,-205.7778 1735.1251,-205.7778"/>
</g>
<!-- MatMenuModule  -->
<g id="node16" class="node">
<title>MatMenuModule </title>
<polygon fill="#fb8072" stroke="#000000" points="1670.2591,-252 1551.7409,-252 1551.7409,-216 1670.2591,-216 1670.2591,-252"/>
<text text-anchor="middle" x="1611" y="-229.8" font-family="Times,serif" font-size="14.00" fill="#000000">MatMenuModule </text>
</g>
<!-- MaterialModule&#45;&gt;MatMenuModule  -->
<g id="edge15" class="edge">
<title>MaterialModule&#45;&gt;MatMenuModule </title>
<path fill="none" stroke="#000000" stroke-dasharray="5,2" d="M963.6951,-174C1126.1955,-174 1601.625,-174 1601.625,-174 1601.625,-174 1601.625,-205.998 1601.625,-205.998"/>
<polygon fill="#000000" stroke="#000000" points="1598.1251,-205.998 1601.625,-215.998 1605.1251,-205.9981 1598.1251,-205.998"/>
</g>
<!-- MatToolbarModule  -->
<g id="node17" class="node">
<title>MatToolbarModule </title>
<polygon fill="#fb8072" stroke="#000000" points="1533.918,-252 1404.082,-252 1404.082,-216 1533.918,-216 1533.918,-252"/>
<text text-anchor="middle" x="1469" y="-229.8" font-family="Times,serif" font-size="14.00" fill="#000000">MatToolbarModule </text>
</g>
<!-- MaterialModule&#45;&gt;MatToolbarModule  -->
<g id="edge16" class="edge">
<title>MaterialModule&#45;&gt;MatToolbarModule </title>
<path fill="none" stroke="#000000" stroke-dasharray="5,2" d="M963.5961,-176C1102.0907,-176 1461.125,-176 1461.125,-176 1461.125,-176 1461.125,-205.9664 1461.125,-205.9664"/>
<polygon fill="#000000" stroke="#000000" points="1457.6251,-205.9663 1461.125,-215.9664 1464.6251,-205.9664 1457.6251,-205.9663"/>
</g>
<!-- MatIconModule  -->
<g id="node18" class="node">
<title>MatIconModule </title>
<polygon fill="#fb8072" stroke="#000000" points="1386.4758,-252 1275.5242,-252 1275.5242,-216 1386.4758,-216 1386.4758,-252"/>
<text text-anchor="middle" x="1331" y="-229.8" font-family="Times,serif" font-size="14.00" fill="#000000">MatIconModule </text>
</g>
<!-- MaterialModule&#45;&gt;MatIconModule  -->
<g id="edge17" class="edge">
<title>MaterialModule&#45;&gt;MatIconModule </title>
<path fill="none" stroke="#000000" stroke-dasharray="5,2" d="M963.7799,-179C1075.9673,-179 1324.625,-179 1324.625,-179 1324.625,-179 1324.625,-205.9909 1324.625,-205.9909"/>
<polygon fill="#000000" stroke="#000000" points="1321.1251,-205.9909 1324.625,-215.9909 1328.1251,-205.991 1321.1251,-205.9909"/>
</g>
<!-- MatCardModule  -->
<g id="node19" class="node">
<title>MatCardModule </title>
<polygon fill="#fb8072" stroke="#000000" points="1257.3116,-252 1144.6884,-252 1144.6884,-216 1257.3116,-216 1257.3116,-252"/>
<text text-anchor="middle" x="1201" y="-229.8" font-family="Times,serif" font-size="14.00" fill="#000000">MatCardModule </text>
</g>
<!-- MaterialModule&#45;&gt;MatCardModule  -->
<g id="edge18" class="edge">
<title>MaterialModule&#45;&gt;MatCardModule </title>
<path fill="none" stroke="#000000" stroke-dasharray="5,2" d="M963.5233,-182C1042.0539,-182 1179.2814,-182 1179.2814,-182 1179.2814,-182 1179.2814,-205.8129 1179.2814,-205.8129"/>
<polygon fill="#000000" stroke="#000000" points="1175.7815,-205.8129 1179.2814,-215.8129 1182.7815,-205.813 1175.7815,-205.8129"/>
</g>
<!-- MatFormFieldModule  -->
<g id="node20" class="node">
<title>MatFormFieldModule </title>
<polygon fill="#fb8072" stroke="#000000" points="1126.2121,-252 981.7879,-252 981.7879,-216 1126.2121,-216 1126.2121,-252"/>
<text text-anchor="middle" x="1054" y="-229.8" font-family="Times,serif" font-size="14.00" fill="#000000">MatFormFieldModule </text>
</g>
<!-- MaterialModule&#45;&gt;MatFormFieldModule  -->
<g id="edge19" class="edge">
<title>MaterialModule&#45;&gt;MatFormFieldModule </title>
<path fill="none" stroke="#000000" stroke-dasharray="5,2" d="M963.611,-185C994.9112,-185 1028.298,-185 1028.298,-185 1028.298,-185 1028.298,-205.7542 1028.298,-205.7542"/>
<polygon fill="#000000" stroke="#000000" points="1024.7981,-205.7542 1028.298,-215.7542 1031.7981,-205.7542 1024.7981,-205.7542"/>
</g>
<!-- MatListModule  -->
<g id="node21" class="node">
<title>MatListModule </title>
<polygon fill="#fb8072" stroke="#000000" points="963.8787,-252 856.1213,-252 856.1213,-216 963.8787,-216 963.8787,-252"/>
<text text-anchor="middle" x="910" y="-229.8" font-family="Times,serif" font-size="14.00" fill="#000000">MatListModule </text>
</g>
<!-- MaterialModule&#45;&gt;MatListModule  -->
<g id="edge20" class="edge">
<title>MaterialModule&#45;&gt;MatListModule </title>
<path fill="none" stroke="#000000" stroke-dasharray="5,2" d="M910,-187.1061C910,-187.1061 910,-205.991 910,-205.991"/>
<polygon fill="#000000" stroke="#000000" points="906.5001,-205.9909 910,-215.991 913.5001,-205.991 906.5001,-205.9909"/>
</g>
<!-- MatGridListModule  -->
<g id="node22" class="node">
<title>MatGridListModule </title>
<polygon fill="#fb8072" stroke="#000000" points="838.5358,-252 705.4642,-252 705.4642,-216 838.5358,-216 838.5358,-252"/>
<text text-anchor="middle" x="772" y="-229.8" font-family="Times,serif" font-size="14.00" fill="#000000">MatGridListModule </text>
</g>
<!-- MaterialModule&#45;&gt;MatGridListModule  -->
<g id="edge21" class="edge">
<title>MaterialModule&#45;&gt;MatGridListModule </title>
<path fill="none" stroke="#000000" stroke-dasharray="5,2" d="M856.4066,-185C810.9232,-185 752.994,-185 752.994,-185 752.994,-185 752.994,-205.7542 752.994,-205.7542"/>
<polygon fill="#000000" stroke="#000000" points="749.4941,-205.7542 752.994,-215.7542 756.4941,-205.7542 749.4941,-205.7542"/>
</g>
<!-- MatTabsModule  -->
<g id="node23" class="node">
<title>MatTabsModule </title>
<polygon fill="#fb8072" stroke="#000000" points="687.3116,-252 574.6884,-252 574.6884,-216 687.3116,-216 687.3116,-252"/>
<text text-anchor="middle" x="631" y="-229.8" font-family="Times,serif" font-size="14.00" fill="#000000">MatTabsModule </text>
</g>
<!-- MaterialModule&#45;&gt;MatTabsModule  -->
<g id="edge22" class="edge">
<title>MaterialModule&#45;&gt;MatTabsModule </title>
<path fill="none" stroke="#000000" stroke-dasharray="5,2" d="M856.4485,-182C772.1596,-182 618.0314,-182 618.0314,-182 618.0314,-182 618.0314,-205.8129 618.0314,-205.8129"/>
<polygon fill="#000000" stroke="#000000" points="614.5315,-205.8129 618.0314,-215.8129 621.5315,-205.813 614.5315,-205.8129"/>
</g>
<!-- FormsModule  -->
<g id="node24" class="node">
<title>FormsModule </title>
<polygon fill="#fb8072" stroke="#000000" points="556.3283,-252 457.6717,-252 457.6717,-216 556.3283,-216 556.3283,-252"/>
<text text-anchor="middle" x="507" y="-229.8" font-family="Times,serif" font-size="14.00" fill="#000000">FormsModule </text>
</g>
<!-- MaterialModule&#45;&gt;FormsModule  -->
<g id="edge23" class="edge">
<title>MaterialModule&#45;&gt;FormsModule </title>
<path fill="none" stroke="#000000" stroke-dasharray="5,2" d="M856.5094,-179C748.2477,-179 513.375,-179 513.375,-179 513.375,-179 513.375,-205.9909 513.375,-205.9909"/>
<polygon fill="#000000" stroke="#000000" points="509.8751,-205.9909 513.375,-215.9909 516.8751,-205.991 509.8751,-205.9909"/>
</g>
<!-- ReactiveFormsModule  -->
<g id="node25" class="node">
<title>ReactiveFormsModule </title>
<polygon fill="#fb8072" stroke="#000000" points="439.8045,-252 292.1955,-252 292.1955,-216 439.8045,-216 439.8045,-252"/>
<text text-anchor="middle" x="366" y="-229.8" font-family="Times,serif" font-size="14.00" fill="#000000">ReactiveFormsModule </text>
</g>
<!-- MaterialModule&#45;&gt;ReactiveFormsModule  -->
<g id="edge24" class="edge">
<title>MaterialModule&#45;&gt;ReactiveFormsModule </title>
<path fill="none" stroke="#000000" stroke-dasharray="5,2" d="M856.1396,-176C720.1856,-176 373.875,-176 373.875,-176 373.875,-176 373.875,-205.9664 373.875,-205.9664"/>
<polygon fill="#000000" stroke="#000000" points="370.3751,-205.9663 373.875,-215.9664 377.3751,-205.9664 370.3751,-205.9663"/>
</g>
<!-- MatInputModule  -->
<g id="node26" class="node">
<title>MatInputModule </title>
<polygon fill="#fb8072" stroke="#000000" points="274.6509,-252 159.3491,-252 159.3491,-216 274.6509,-216 274.6509,-252"/>
<text text-anchor="middle" x="217" y="-229.8" font-family="Times,serif" font-size="14.00" fill="#000000">MatInputModule </text>
</g>
<!-- MaterialModule&#45;&gt;MatInputModule  -->
<g id="edge25" class="edge">
<title>MaterialModule&#45;&gt;MatInputModule </title>
<path fill="none" stroke="#000000" stroke-dasharray="5,2" d="M856.3571,-174C695.1989,-174 226.375,-174 226.375,-174 226.375,-174 226.375,-205.998 226.375,-205.998"/>
<polygon fill="#000000" stroke="#000000" points="222.8751,-205.998 226.375,-215.998 229.8751,-205.9981 222.8751,-205.998"/>
</g>
<!-- MatTableModule  -->
<g id="node27" class="node">
<title>MatTableModule </title>
<polygon fill="#fb8072" stroke="#000000" points="141.973,-252 24.027,-252 24.027,-216 141.973,-216 141.973,-252"/>
<text text-anchor="middle" x="83" y="-229.8" font-family="Times,serif" font-size="14.00" fill="#000000">MatTableModule </text>
</g>
<!-- MaterialModule&#45;&gt;MatTableModule  -->
<g id="edge26" class="edge">
<title>MaterialModule&#45;&gt;MatTableModule </title>
<path fill="none" stroke="#000000" stroke-dasharray="5,2" d="M856.4518,-171C674.8859,-171 93.875,-171 93.875,-171 93.875,-171 93.875,-205.7778 93.875,-205.7778"/>
<polygon fill="#000000" stroke="#000000" points="90.3751,-205.7778 93.875,-215.7778 97.3751,-205.7778 90.3751,-205.7778"/>
</g>
</g>
</svg>
