<?xml version="1.0" encoding="UTF-8" standalone="no"?>
<!DOCTYPE svg PUBLIC "-//W3C//DTD SVG 1.1//EN"
 "http://www.w3.org/Graphics/SVG/1.1/DTD/svg11.dtd">
<!-- Generated by graphviz version 2.40.1 (20161225.0304)
 -->
<!-- Title: dependencies Pages: 1 -->
<svg width="1817pt" height="284pt"
 viewBox="0.00 0.00 1817.00 284.00" xmlns="http://www.w3.org/2000/svg" xmlns:xlink="http://www.w3.org/1999/xlink">
<g id="graph0" class="graph" transform="scale(1 1) rotate(0) translate(4 280)">
<title>dependencies</title>
<polygon fill="#ffffff" stroke="transparent" points="-4,4 -4,-280 1813,-280 1813,4 -4,4"/>
<text text-anchor="start" x="883.5091" y="-42.4" font-family="sans-serif" font-weight="bold" font-size="14.00" fill="#000000">Legend</text>
<polygon fill="#ffffb3" stroke="transparent" points="670.5,-10 670.5,-30 690.5,-30 690.5,-10 670.5,-10"/>
<text text-anchor="start" x="694.129" y="-15.4" font-family="sans-serif" font-size="14.00" fill="#000000"> &#160;Declarations</text>
<polygon fill="#8dd3c7" stroke="transparent" points="783.5,-10 783.5,-30 803.5,-30 803.5,-10 783.5,-10"/>
<text text-anchor="start" x="807.2251" y="-15.4" font-family="sans-serif" font-size="14.00" fill="#000000"> &#160;Module</text>
<polygon fill="#80b1d3" stroke="transparent" points="869.5,-10 869.5,-30 889.5,-30 889.5,-10 869.5,-10"/>
<text text-anchor="start" x="893.2812" y="-15.4" font-family="sans-serif" font-size="14.00" fill="#000000"> &#160;Bootstrap</text>
<polygon fill="#fdb462" stroke="transparent" points="966.5,-10 966.5,-30 986.5,-30 986.5,-10 966.5,-10"/>
<text text-anchor="start" x="990.1732" y="-15.4" font-family="sans-serif" font-size="14.00" fill="#000000"> &#160;Providers</text>
<polygon fill="#fb8072" stroke="transparent" points="1062.5,-10 1062.5,-30 1082.5,-30 1082.5,-10 1062.5,-10"/>
<text text-anchor="start" x="1086.2258" y="-15.4" font-family="sans-serif" font-size="14.00" fill="#000000"> &#160;Exports</text>
<g id="clust1" class="cluster">
<title>cluster_AppModule</title>
<polygon fill="none" stroke="#000000" stroke-dasharray="1,5" points="8,-70 8,-268 1801,-268 1801,-70 8,-70"/>
</g>
<g id="clust2" class="cluster">
<title>cluster_AppModule_declarations</title>
<polygon fill="none" stroke="#000000" points="1188,-78 1188,-130 1793,-130 1793,-78 1188,-78"/>
</g>
<g id="clust7" class="cluster">
<title>cluster_AppModule_imports</title>
<polygon fill="none" stroke="#000000" points="16,-78 16,-130 1180,-130 1180,-78 16,-78"/>
</g>
<g id="clust9" class="cluster">
<title>cluster_AppModule_bootstrap</title>
<polygon fill="none" stroke="#000000" points="861,-208 861,-260 985,-260 985,-208 861,-208"/>
</g>
<!-- AppComponent -->
<g id="node1" class="node">
<title>AppComponent</title>
<polygon fill="#ffffb3" stroke="#000000" points="1784.9399,-122 1679.0601,-122 1679.0601,-86 1784.9399,-86 1784.9399,-122"/>
<text text-anchor="middle" x="1732" y="-99.8" font-family="Times,serif" font-size="14.00" fill="#000000">AppComponent</text>
</g>
<!-- AppModule -->
<g id="node5" class="node">
<title>AppModule</title>
<polygon fill="#8dd3c7" stroke="#000000" points="964.6571,-187 961.6571,-191 940.6571,-191 937.6571,-187 881.3429,-187 881.3429,-151 964.6571,-151 964.6571,-187"/>
<text text-anchor="middle" x="923" y="-164.8" font-family="Times,serif" font-size="14.00" fill="#000000">AppModule</text>
</g>
<!-- AppComponent&#45;&gt;AppModule -->
<g id="edge1" class="edge">
<title>AppComponent&#45;&gt;AppModule</title>
<path fill="none" stroke="#000000" d="M1732,-122.0908C1732,-145.1328 1732,-182 1732,-182 1732,-182 974.7918,-182 974.7918,-182"/>
<polygon fill="#000000" stroke="#000000" points="974.7918,-178.5001 964.7918,-182 974.7918,-185.5001 974.7918,-178.5001"/>
</g>
<!-- ElectriccarComponent -->
<g id="node2" class="node">
<title>ElectriccarComponent</title>
<polygon fill="#ffffb3" stroke="#000000" points="1660.951,-122 1519.049,-122 1519.049,-86 1660.951,-86 1660.951,-122"/>
<text text-anchor="middle" x="1590" y="-99.8" font-family="Times,serif" font-size="14.00" fill="#000000">ElectriccarComponent</text>
</g>
<!-- ElectriccarComponent&#45;&gt;AppModule -->
<g id="edge2" class="edge">
<title>ElectriccarComponent&#45;&gt;AppModule</title>
<path fill="none" stroke="#000000" d="M1590,-122.0449C1590,-143.6623 1590,-177 1590,-177 1590,-177 974.7238,-177 974.7238,-177"/>
<polygon fill="#000000" stroke="#000000" points="974.7239,-173.5001 964.7238,-177 974.7238,-180.5001 974.7239,-173.5001"/>
</g>
<!-- GascarComponent -->
<g id="node3" class="node">
<title>GascarComponent</title>
<polygon fill="#ffffb3" stroke="#000000" points="1501.1881,-122 1380.8119,-122 1380.8119,-86 1501.1881,-86 1501.1881,-122"/>
<text text-anchor="middle" x="1441" y="-99.8" font-family="Times,serif" font-size="14.00" fill="#000000">GascarComponent</text>
</g>
<!-- GascarComponent&#45;&gt;AppModule -->
<g id="edge3" class="edge">
<title>GascarComponent&#45;&gt;AppModule</title>
<path fill="none" stroke="#000000" d="M1441,-122.2228C1441,-142.3652 1441,-172 1441,-172 1441,-172 974.9513,-172 974.9513,-172"/>
<polygon fill="#000000" stroke="#000000" points="974.9514,-168.5001 964.9513,-172 974.9513,-175.5001 974.9514,-168.5001"/>
</g>
<!-- ElectricCarListComponent -->
<g id="node4" class="node">
<title>ElectricCarListComponent</title>
<polygon fill="#ffffb3" stroke="#000000" points="1362.3515,-122 1195.6485,-122 1195.6485,-86 1362.3515,-86 1362.3515,-122"/>
<text text-anchor="middle" x="1279" y="-99.8" font-family="Times,serif" font-size="14.00" fill="#000000">ElectricCarListComponent</text>
</g>
<!-- ElectricCarListComponent&#45;&gt;AppModule -->
<g id="edge4" class="edge">
<title>ElectricCarListComponent&#45;&gt;AppModule</title>
<path fill="none" stroke="#000000" d="M1279,-122.2222C1279,-140.8285 1279,-167 1279,-167 1279,-167 974.8846,-167 974.8846,-167"/>
<polygon fill="#000000" stroke="#000000" points="974.8846,-163.5001 964.8846,-167 974.8845,-170.5001 974.8846,-163.5001"/>
</g>
<!-- AppComponent  -->
<g id="node14" class="node">
<title>AppComponent </title>
<polygon fill="#80b1d3" stroke="#000000" points="977.439,-252 868.561,-252 868.561,-216 977.439,-216 977.439,-252"/>
<text text-anchor="middle" x="923" y="-229.8" font-family="Times,serif" font-size="14.00" fill="#000000">AppComponent </text>
</g>
<!-- AppModule&#45;&gt;AppComponent  -->
<g id="edge14" class="edge">
<title>AppModule&#45;&gt;AppComponent </title>
<path fill="none" stroke="#000000" stroke-dasharray="1,5" d="M923,-187.1061C923,-187.1061 923,-205.991 923,-205.991"/>
<polygon fill="#000000" stroke="#000000" points="919.5001,-205.9909 923,-215.991 926.5001,-205.991 919.5001,-205.9909"/>
</g>
<!-- RouterModule.forRoot(args) -->
<g id="node6" class="node">
<title>RouterModule.forRoot(args)</title>
<polygon fill="#8dd3c7" stroke="#000000" points="1171.8419,-122 1168.8419,-126 1147.8419,-126 1144.8419,-122 994.1581,-122 994.1581,-86 1171.8419,-86 1171.8419,-122"/>
<text text-anchor="middle" x="1083" y="-99.8" font-family="Times,serif" font-size="14.00" fill="#000000">RouterModule.forRoot(args)</text>
</g>
<!-- RouterModule.forRoot(args)&#45;&gt;AppModule -->
<g id="edge5" class="edge">
<title>RouterModule.forRoot(args)&#45;&gt;AppModule</title>
<path fill="none" stroke="#000000" d="M1053.4431,-122.2396C1053.4431,-137.5706 1053.4431,-157 1053.4431,-157 1053.4431,-157 974.991,-157 974.991,-157"/>
<polygon fill="#000000" stroke="#000000" points="974.9911,-153.5001 964.991,-157 974.991,-160.5001 974.9911,-153.5001"/>
</g>
<!-- RouterModule.forRoot(args)&#45;&gt;AppModule -->
<g id="edge8" class="edge">
<title>RouterModule.forRoot(args)&#45;&gt;AppModule</title>
<path fill="none" stroke="#000000" d="M1112.5569,-122.0336C1112.5569,-139.0597 1112.5569,-162 1112.5569,-162 1112.5569,-162 975.0688,-162 975.0688,-162"/>
<polygon fill="#000000" stroke="#000000" points="975.0689,-158.5001 965.0688,-162 975.0688,-165.5001 975.0689,-158.5001"/>
</g>
<!-- BrowserModule -->
<g id="node7" class="node">
<title>BrowserModule</title>
<polygon fill="#8dd3c7" stroke="#000000" points="976.4734,-122 973.4734,-126 952.4734,-126 949.4734,-122 869.5266,-122 869.5266,-86 976.4734,-86 976.4734,-122"/>
<text text-anchor="middle" x="923" y="-99.8" font-family="Times,serif" font-size="14.00" fill="#000000">BrowserModule</text>
</g>
<!-- BrowserModule&#45;&gt;AppModule -->
<g id="edge6" class="edge">
<title>BrowserModule&#45;&gt;AppModule</title>
<path fill="none" stroke="#000000" d="M923,-122.1061C923,-122.1061 923,-140.991 923,-140.991"/>
<polygon fill="#000000" stroke="#000000" points="919.5001,-140.9909 923,-150.991 926.5001,-140.991 919.5001,-140.9909"/>
</g>
<!-- HttpClientModule -->
<g id="node8" class="node">
<title>HttpClientModule</title>
<polygon fill="#8dd3c7" stroke="#000000" points="851.1611,-122 848.1611,-126 827.1611,-126 824.1611,-122 732.8389,-122 732.8389,-86 851.1611,-86 851.1611,-122"/>
<text text-anchor="middle" x="792" y="-99.8" font-family="Times,serif" font-size="14.00" fill="#000000">HttpClientModule</text>
</g>
<!-- HttpClientModule&#45;&gt;AppModule -->
<g id="edge7" class="edge">
<title>HttpClientModule&#45;&gt;AppModule</title>
<path fill="none" stroke="#000000" d="M792,-122.2396C792,-137.5706 792,-157 792,-157 792,-157 871.1906,-157 871.1906,-157"/>
<polygon fill="#000000" stroke="#000000" points="871.1906,-160.5001 881.1906,-157 871.1906,-153.5001 871.1906,-160.5001"/>
</g>
<!-- MatDialogModule -->
<g id="node9" class="node">
<title>MatDialogModule</title>
<polygon fill="#8dd3c7" stroke="#000000" points="715.2022,-122 712.2022,-126 691.2022,-126 688.2022,-122 594.7978,-122 594.7978,-86 715.2022,-86 715.2022,-122"/>
<text text-anchor="middle" x="655" y="-99.8" font-family="Times,serif" font-size="14.00" fill="#000000">MatDialogModule</text>
</g>
<!-- MatDialogModule&#45;&gt;AppModule -->
<g id="edge9" class="edge">
<title>MatDialogModule&#45;&gt;AppModule</title>
<path fill="none" stroke="#000000" d="M655,-122.0336C655,-139.0597 655,-162 655,-162 655,-162 871.125,-162 871.125,-162"/>
<polygon fill="#000000" stroke="#000000" points="871.125,-165.5001 881.125,-162 871.125,-158.5001 871.125,-165.5001"/>
</g>
<!-- BrowserAnimationsModule -->
<g id="node10" class="node">
<title>BrowserAnimationsModule</title>
<polygon fill="#8dd3c7" stroke="#000000" points="577.3019,-122 574.3019,-126 553.3019,-126 550.3019,-122 404.6981,-122 404.6981,-86 577.3019,-86 577.3019,-122"/>
<text text-anchor="middle" x="491" y="-99.8" font-family="Times,serif" font-size="14.00" fill="#000000">BrowserAnimationsModule</text>
</g>
<!-- BrowserAnimationsModule&#45;&gt;AppModule -->
<g id="edge10" class="edge">
<title>BrowserAnimationsModule&#45;&gt;AppModule</title>
<path fill="none" stroke="#000000" d="M491,-122.2222C491,-140.8285 491,-167 491,-167 491,-167 871.1855,-167 871.1855,-167"/>
<polygon fill="#000000" stroke="#000000" points="871.1855,-170.5001 881.1855,-167 871.1855,-163.5001 871.1855,-170.5001"/>
</g>
<!-- FormsModule -->
<g id="node11" class="node">
<title>FormsModule</title>
<polygon fill="#8dd3c7" stroke="#000000" points="386.8288,-122 383.8288,-126 362.8288,-126 359.8288,-122 291.1712,-122 291.1712,-86 386.8288,-86 386.8288,-122"/>
<text text-anchor="middle" x="339" y="-99.8" font-family="Times,serif" font-size="14.00" fill="#000000">FormsModule</text>
</g>
<!-- FormsModule&#45;&gt;AppModule -->
<g id="edge11" class="edge">
<title>FormsModule&#45;&gt;AppModule</title>
<path fill="none" stroke="#000000" d="M339,-122.2228C339,-142.3652 339,-172 339,-172 339,-172 871.0002,-172 871.0002,-172"/>
<polygon fill="#000000" stroke="#000000" points="871.0002,-175.5001 881.0002,-172 871.0001,-168.5001 871.0002,-175.5001"/>
</g>
<!-- MatDividerModule -->
<g id="node12" class="node">
<title>MatDividerModule</title>
<polygon fill="#8dd3c7" stroke="#000000" points="273.3627,-122 270.3627,-126 249.3627,-126 246.3627,-122 148.6373,-122 148.6373,-86 273.3627,-86 273.3627,-122"/>
<text text-anchor="middle" x="211" y="-99.8" font-family="Times,serif" font-size="14.00" fill="#000000">MatDividerModule</text>
</g>
<!-- MatDividerModule&#45;&gt;AppModule -->
<g id="edge12" class="edge">
<title>MatDividerModule&#45;&gt;AppModule</title>
<path fill="none" stroke="#000000" d="M211,-122.0449C211,-143.6623 211,-177 211,-177 211,-177 871.1193,-177 871.1193,-177"/>
<polygon fill="#000000" stroke="#000000" points="871.1193,-180.5001 881.1193,-177 871.1193,-173.5001 871.1193,-180.5001"/>
</g>
<!-- MaterialModule -->
<g id="node13" class="node">
<title>MaterialModule</title>
<polygon fill="#8dd3c7" stroke="#000000" points="130.4706,-122 127.4706,-126 106.4706,-126 103.4706,-122 23.5294,-122 23.5294,-86 130.4706,-86 130.4706,-122"/>
<text text-anchor="middle" x="77" y="-99.8" font-family="Times,serif" font-size="14.00" fill="#000000">MaterialModule</text>
</g>
<!-- MaterialModule&#45;&gt;AppModule -->
<g id="edge13" class="edge">
<title>MaterialModule&#45;&gt;AppModule</title>
<path fill="none" stroke="#000000" d="M77,-122.0908C77,-145.1328 77,-182 77,-182 77,-182 871.3353,-182 871.3353,-182"/>
<polygon fill="#000000" stroke="#000000" points="871.3353,-185.5001 881.3353,-182 871.3353,-178.5001 871.3353,-185.5001"/>
</g>
</g>
</svg>
