<?xml version="1.0" encoding="UTF-8" standalone="no"?>
<!DOCTYPE svg PUBLIC "-//W3C//DTD SVG 1.1//EN"
 "http://www.w3.org/Graphics/SVG/1.1/DTD/svg11.dtd">
<!-- Generated by graphviz version 2.40.1 (20161225.0304)
 -->
<!-- Title: dependencies Pages: 1 -->
<svg width="5305pt" height="355pt"
 viewBox="0.00 0.00 5305.00 355.00" xmlns="http://www.w3.org/2000/svg" xmlns:xlink="http://www.w3.org/1999/xlink">
<g id="graph0" class="graph" transform="scale(1 1) rotate(0) translate(4 351)">
<title>dependencies</title>
<polygon fill="#ffffff" stroke="transparent" points="-4,4 -4,-351 5301,-351 5301,4 -4,4"/>
<text text-anchor="start" x="2627.5091" y="-42.4" font-family="sans-serif" font-weight="bold" font-size="14.00" fill="#000000">Legend</text>
<polygon fill="#ffffb3" stroke="transparent" points="2414.5,-10 2414.5,-30 2434.5,-30 2434.5,-10 2414.5,-10"/>
<text text-anchor="start" x="2438.129" y="-15.4" font-family="sans-serif" font-size="14.00" fill="#000000"> &#160;Declarations</text>
<polygon fill="#8dd3c7" stroke="transparent" points="2527.5,-10 2527.5,-30 2547.5,-30 2547.5,-10 2527.5,-10"/>
<text text-anchor="start" x="2551.2251" y="-15.4" font-family="sans-serif" font-size="14.00" fill="#000000"> &#160;Module</text>
<polygon fill="#80b1d3" stroke="transparent" points="2613.5,-10 2613.5,-30 2633.5,-30 2633.5,-10 2613.5,-10"/>
<text text-anchor="start" x="2637.2812" y="-15.4" font-family="sans-serif" font-size="14.00" fill="#000000"> &#160;Bootstrap</text>
<polygon fill="#fdb462" stroke="transparent" points="2710.5,-10 2710.5,-30 2730.5,-30 2730.5,-10 2710.5,-10"/>
<text text-anchor="start" x="2734.1732" y="-15.4" font-family="sans-serif" font-size="14.00" fill="#000000"> &#160;Providers</text>
<polygon fill="#fb8072" stroke="transparent" points="2806.5,-10 2806.5,-30 2826.5,-30 2826.5,-10 2806.5,-10"/>
<text text-anchor="start" x="2830.2258" y="-15.4" font-family="sans-serif" font-size="14.00" fill="#000000"> &#160;Exports</text>
<g id="clust1" class="cluster">
<title>cluster_AppModule</title>
<polygon fill="none" stroke="#000000" stroke-dasharray="1,5" points="8,-70 8,-339 1807,-339 1807,-70 8,-70"/>
</g>
<g id="clust2" class="cluster">
<title>cluster_AppModule_declarations</title>
<polygon fill="none" stroke="#000000" points="148,-143 148,-195 752,-195 752,-143 148,-143"/>
</g>
<g id="clust7" class="cluster">
<title>cluster_AppModule_imports</title>
<polygon fill="none" stroke="#000000" points="760,-78 760,-195 1799,-195 1799,-78 760,-78"/>
</g>
<g id="clust9" class="cluster">
<title>cluster_AppModule_bootstrap</title>
<polygon fill="none" stroke="#000000" points="45,-279 45,-331 169,-331 169,-279 45,-279"/>
</g>
<g id="clust11" class="cluster">
<title>cluster_AppRoutingModule</title>
<polygon fill="none" stroke="#000000" stroke-dasharray="1,5" points="3480,-70 3480,-195 3624,-195 3624,-70 3480,-70"/>
</g>
<g id="clust13" class="cluster">
<title>cluster_AppRoutingModule_imports</title>
<polygon fill="none" stroke="#000000" points="3488,-78 3488,-130 3616,-130 3616,-78 3488,-78"/>
</g>
<g id="clust17" class="cluster">
<title>cluster_MaterialModule</title>
<polygon fill="none" stroke="#000000" stroke-dasharray="1,5" points="1815,-203 1815,-271 5289,-271 5289,-203 1815,-203"/>
</g>
<g id="clust19" class="cluster">
<title>cluster_MaterialModule_imports</title>
<polygon fill="none" stroke="#000000" points="3635,-211 3635,-263 5281,-263 5281,-211 3635,-211"/>
</g>
<g id="clust20" class="cluster">
<title>cluster_MaterialModule_exports</title>
<polygon fill="none" stroke="#000000" points="1823,-211 1823,-263 3627,-263 3627,-211 1823,-211"/>
</g>
<!-- AppComponent -->
<g id="node1" class="node">
<title>AppComponent</title>
<polygon fill="#ffffb3" stroke="#000000" points="559.9399,-187 454.0601,-187 454.0601,-151 559.9399,-151 559.9399,-187"/>
<text text-anchor="middle" x="507" y="-164.8" font-family="Times,serif" font-size="14.00" fill="#000000">AppComponent</text>
</g>
<!-- AppModule -->
<g id="node5" class="node">
<title>AppModule</title>
<polygon fill="#8dd3c7" stroke="#000000" points="148.6571,-255 145.6571,-259 124.6571,-259 121.6571,-255 65.3429,-255 65.3429,-219 148.6571,-219 148.6571,-255"/>
<text text-anchor="middle" x="107" y="-232.8" font-family="Times,serif" font-size="14.00" fill="#000000">AppModule</text>
</g>
<!-- AppComponent&#45;&gt;AppModule -->
<g id="edge1" class="edge">
<title>AppComponent&#45;&gt;AppModule</title>
<path fill="none" stroke="#000000" d="M507,-187.027C507,-203.3976 507,-225 507,-225 507,-225 158.675,-225 158.675,-225"/>
<polygon fill="#000000" stroke="#000000" points="158.6751,-221.5001 148.675,-225 158.675,-228.5001 158.6751,-221.5001"/>
</g>
<!-- ElectriccarComponent -->
<g id="node2" class="node">
<title>ElectriccarComponent</title>
<polygon fill="#ffffb3" stroke="#000000" points="435.951,-187 294.049,-187 294.049,-151 435.951,-151 435.951,-187"/>
<text text-anchor="middle" x="365" y="-164.8" font-family="Times,serif" font-size="14.00" fill="#000000">ElectriccarComponent</text>
</g>
<!-- ElectriccarComponent&#45;&gt;AppModule -->
<g id="edge2" class="edge">
<title>ElectriccarComponent&#45;&gt;AppModule</title>
<path fill="none" stroke="#000000" d="M365,-187.2396C365,-202.5706 365,-222 365,-222 365,-222 158.7389,-222 158.7389,-222"/>
<polygon fill="#000000" stroke="#000000" points="158.7389,-218.5001 148.7389,-222 158.7389,-225.5001 158.7389,-218.5001"/>
</g>
<!-- GascarComponent -->
<g id="node3" class="node">
<title>GascarComponent</title>
<polygon fill="#ffffb3" stroke="#000000" points="276.1881,-187 155.8119,-187 155.8119,-151 276.1881,-151 276.1881,-187"/>
<text text-anchor="middle" x="216" y="-164.8" font-family="Times,serif" font-size="14.00" fill="#000000">GascarComponent</text>
</g>
<!-- GascarComponent&#45;&gt;AppModule -->
<g id="edge3" class="edge">
<title>GascarComponent&#45;&gt;AppModule</title>
<path fill="none" stroke="#000000" d="M155.7988,-169C136.934,-169 120.9427,-169 120.9427,-169 120.9427,-169 120.9427,-208.7772 120.9427,-208.7772"/>
<polygon fill="#000000" stroke="#000000" points="117.4428,-208.7772 120.9427,-218.7772 124.4428,-208.7773 117.4428,-208.7772"/>
</g>
<!-- ElectricCarListComponent -->
<g id="node4" class="node">
<title>ElectricCarListComponent</title>
<polygon fill="#ffffb3" stroke="#000000" points="744.3515,-187 577.6485,-187 577.6485,-151 744.3515,-151 744.3515,-187"/>
<text text-anchor="middle" x="661" y="-164.8" font-family="Times,serif" font-size="14.00" fill="#000000">ElectricCarListComponent</text>
</g>
<!-- ElectricCarListComponent&#45;&gt;AppModule -->
<g id="edge4" class="edge">
<title>ElectricCarListComponent&#45;&gt;AppModule</title>
<path fill="none" stroke="#000000" d="M661,-187.0225C661,-204.3734 661,-228 661,-228 661,-228 159.0948,-228 159.0948,-228"/>
<polygon fill="#000000" stroke="#000000" points="159.0948,-224.5001 149.0948,-228 159.0947,-231.5001 159.0948,-224.5001"/>
</g>
<!-- AppComponent  -->
<g id="node14" class="node">
<title>AppComponent </title>
<polygon fill="#80b1d3" stroke="#000000" points="161.439,-323 52.561,-323 52.561,-287 161.439,-287 161.439,-323"/>
<text text-anchor="middle" x="107" y="-300.8" font-family="Times,serif" font-size="14.00" fill="#000000">AppComponent </text>
</g>
<!-- AppModule&#45;&gt;AppComponent  -->
<g id="edge14" class="edge">
<title>AppModule&#45;&gt;AppComponent </title>
<path fill="none" stroke="#000000" stroke-dasharray="1,5" d="M107,-255.2228C107,-255.2228 107,-276.7269 107,-276.7269"/>
<polygon fill="#000000" stroke="#000000" points="103.5001,-276.7269 107,-286.7269 110.5001,-276.727 103.5001,-276.7269"/>
</g>
<!-- RouterModule.forRoot(args) -->
<g id="node6" class="node">
<title>RouterModule.forRoot(args)</title>
<polygon fill="#8dd3c7" stroke="#000000" points="1087.8419,-122 1084.8419,-126 1063.8419,-126 1060.8419,-122 910.1581,-122 910.1581,-86 1087.8419,-86 1087.8419,-122"/>
<text text-anchor="middle" x="999" y="-99.8" font-family="Times,serif" font-size="14.00" fill="#000000">RouterModule.forRoot(args)</text>
</g>
<!-- RouterModule.forRoot(args)&#45;&gt;AppModule -->
<g id="edge5" class="edge">
<title>RouterModule.forRoot(args)&#45;&gt;AppModule</title>
<path fill="none" stroke="#000000" d="M1028.5569,-122.2089C1028.5569,-157.7679 1028.5569,-233 1028.5569,-233 1028.5569,-233 158.6894,-233 158.6894,-233"/>
<polygon fill="#000000" stroke="#000000" points="158.6894,-229.5001 148.6894,-233 158.6894,-236.5001 158.6894,-229.5001"/>
</g>
<!-- RouterModule.forRoot(args)&#45;&gt;AppModule -->
<g id="edge8" class="edge">
<title>RouterModule.forRoot(args)&#45;&gt;AppModule</title>
<path fill="none" stroke="#000000" d="M969.4431,-122.196C969.4431,-157.3126 969.4431,-231 969.4431,-231 969.4431,-231 158.8889,-231 158.8889,-231"/>
<polygon fill="#000000" stroke="#000000" points="158.8889,-227.5001 148.8889,-231 158.8888,-234.5001 158.8889,-227.5001"/>
</g>
<!-- BrowserModule -->
<g id="node7" class="node">
<title>BrowserModule</title>
<polygon fill="#8dd3c7" stroke="#000000" points="1212.4734,-122 1209.4734,-126 1188.4734,-126 1185.4734,-122 1105.5266,-122 1105.5266,-86 1212.4734,-86 1212.4734,-122"/>
<text text-anchor="middle" x="1159" y="-99.8" font-family="Times,serif" font-size="14.00" fill="#000000">BrowserModule</text>
</g>
<!-- BrowserModule&#45;&gt;AppModule -->
<g id="edge6" class="edge">
<title>BrowserModule&#45;&gt;AppModule</title>
<path fill="none" stroke="#000000" d="M1159,-122.0773C1159,-158.2287 1159,-236 1159,-236 1159,-236 158.8888,-236 158.8888,-236"/>
<polygon fill="#000000" stroke="#000000" points="158.8889,-232.5001 148.8888,-236 158.8888,-239.5001 158.8889,-232.5001"/>
</g>
<!-- HttpClientModule -->
<g id="node8" class="node">
<title>HttpClientModule</title>
<polygon fill="#8dd3c7" stroke="#000000" points="1349.1611,-122 1346.1611,-126 1325.1611,-126 1322.1611,-122 1230.8389,-122 1230.8389,-86 1349.1611,-86 1349.1611,-122"/>
<text text-anchor="middle" x="1290" y="-99.8" font-family="Times,serif" font-size="14.00" fill="#000000">HttpClientModule</text>
</g>
<!-- HttpClientModule&#45;&gt;AppModule -->
<g id="edge7" class="edge">
<title>HttpClientModule&#45;&gt;AppModule</title>
<path fill="none" stroke="#000000" d="M1290,-122.2067C1290,-159.0559 1290,-239 1290,-239 1290,-239 158.7561,-239 158.7561,-239"/>
<polygon fill="#000000" stroke="#000000" points="158.7561,-235.5001 148.7561,-239 158.7561,-242.5001 158.7561,-235.5001"/>
</g>
<!-- MatDialogModule -->
<g id="node9" class="node">
<title>MatDialogModule</title>
<polygon fill="#8dd3c7" stroke="#000000" points="1487.2022,-122 1484.2022,-126 1463.2022,-126 1460.2022,-122 1366.7978,-122 1366.7978,-86 1487.2022,-86 1487.2022,-122"/>
<text text-anchor="middle" x="1427" y="-99.8" font-family="Times,serif" font-size="14.00" fill="#000000">MatDialogModule</text>
</g>
<!-- MatDialogModule&#45;&gt;AppModule -->
<g id="edge9" class="edge">
<title>MatDialogModule&#45;&gt;AppModule</title>
<path fill="none" stroke="#000000" d="M1427,-122.0411C1427,-159.4476 1427,-242 1427,-242 1427,-242 158.6851,-242 158.6851,-242"/>
<polygon fill="#000000" stroke="#000000" points="158.6852,-238.5001 148.6851,-242 158.6851,-245.5001 158.6852,-238.5001"/>
</g>
<!-- BrowserAnimationsModule -->
<g id="node10" class="node">
<title>BrowserAnimationsModule</title>
<polygon fill="#8dd3c7" stroke="#000000" points="1677.3019,-122 1674.3019,-126 1653.3019,-126 1650.3019,-122 1504.6981,-122 1504.6981,-86 1677.3019,-86 1677.3019,-122"/>
<text text-anchor="middle" x="1591" y="-99.8" font-family="Times,serif" font-size="14.00" fill="#000000">BrowserAnimationsModule</text>
</g>
<!-- BrowserAnimationsModule&#45;&gt;AppModule -->
<g id="edge10" class="edge">
<title>BrowserAnimationsModule&#45;&gt;AppModule</title>
<path fill="none" stroke="#000000" d="M1591,-122.0159C1591,-159.8277 1591,-244 1591,-244 1591,-244 159.0228,-244 159.0228,-244"/>
<polygon fill="#000000" stroke="#000000" points="159.0228,-240.5001 149.0228,-244 159.0227,-247.5001 159.0228,-240.5001"/>
</g>
<!-- FormsModule -->
<g id="node11" class="node">
<title>FormsModule</title>
<polygon fill="#8dd3c7" stroke="#000000" points="1790.8288,-122 1787.8288,-126 1766.8288,-126 1763.8288,-122 1695.1712,-122 1695.1712,-86 1790.8288,-86 1790.8288,-122"/>
<text text-anchor="middle" x="1743" y="-99.8" font-family="Times,serif" font-size="14.00" fill="#000000">FormsModule</text>
</g>
<!-- FormsModule&#45;&gt;AppModule -->
<g id="edge11" class="edge">
<title>FormsModule&#45;&gt;AppModule</title>
<path fill="none" stroke="#000000" d="M1695.2514,-104C1686.9038,-104 1680.8328,-104 1680.8328,-104 1680.8328,-104 1680.8328,-247 1680.8328,-247 1680.8328,-247 158.6908,-247 158.6908,-247"/>
<polygon fill="#000000" stroke="#000000" points="158.6909,-243.5001 148.6908,-247 158.6908,-250.5001 158.6909,-243.5001"/>
</g>
<!-- MaterialModule -->
<g id="node13" class="node">
<title>MaterialModule</title>
<polygon fill="#8dd3c7" stroke="#000000" points="1791.4706,-187 1788.4706,-191 1767.4706,-191 1764.4706,-187 1684.5294,-187 1684.5294,-151 1791.4706,-151 1791.4706,-187"/>
<text text-anchor="middle" x="1738" y="-164.8" font-family="Times,serif" font-size="14.00" fill="#000000">MaterialModule</text>
</g>
<!-- FormsModule&#45;&gt;MaterialModule -->
<g id="edge25" class="edge">
<title>FormsModule&#45;&gt;MaterialModule</title>
<path fill="none" stroke="#000000" d="M1743,-122.1061C1743,-122.1061 1743,-140.991 1743,-140.991"/>
<polygon fill="#000000" stroke="#000000" points="1739.5001,-140.9909 1743,-150.991 1746.5001,-140.991 1739.5001,-140.9909"/>
</g>
<!-- MatDividerModule -->
<g id="node12" class="node">
<title>MatDividerModule</title>
<polygon fill="#8dd3c7" stroke="#000000" points="892.3627,-122 889.3627,-126 868.3627,-126 865.3627,-122 767.6373,-122 767.6373,-86 892.3627,-86 892.3627,-122"/>
<text text-anchor="middle" x="830" y="-99.8" font-family="Times,serif" font-size="14.00" fill="#000000">MatDividerModule</text>
</g>
<!-- MatDividerModule&#45;&gt;AppModule -->
<g id="edge12" class="edge">
<title>MatDividerModule&#45;&gt;AppModule</title>
<path fill="none" stroke="#000000" d="M767.4866,-104C589.5458,-104 93.0573,-104 93.0573,-104 93.0573,-104 93.0573,-208.7858 93.0573,-208.7858"/>
<polygon fill="#000000" stroke="#000000" points="89.5574,-208.7858 93.0573,-218.7858 96.5574,-208.7858 89.5574,-208.7858"/>
</g>
<!-- MaterialModule&#45;&gt;AppModule -->
<g id="edge13" class="edge">
<title>MaterialModule&#45;&gt;AppModule</title>
<path fill="none" stroke="#000000" d="M1777.2226,-187.3802C1777.2226,-211.2785 1777.2226,-250 1777.2226,-250 1777.2226,-250 158.7033,-250 158.7033,-250"/>
<polygon fill="#000000" stroke="#000000" points="158.7034,-246.5001 148.7033,-250 158.7033,-253.5001 158.7034,-246.5001"/>
</g>
<!-- MatButtonModule  -->
<g id="node29" class="node">
<title>MatButtonModule </title>
<polygon fill="#fb8072" stroke="#000000" points="3618.7177,-255 3495.2823,-255 3495.2823,-219 3618.7177,-219 3618.7177,-255"/>
<text text-anchor="middle" x="3557" y="-232.8" font-family="Times,serif" font-size="14.00" fill="#000000">MatButtonModule </text>
</g>
<!-- MaterialModule&#45;&gt;MatButtonModule  -->
<g id="edge29" class="edge">
<title>MaterialModule&#45;&gt;MatButtonModule </title>
<path fill="none" stroke="#000000" stroke-dasharray="5,2" d="M1791.6372,-154C2085.0253,-154 3482.3712,-154 3482.3712,-154 3482.3712,-154 3482.3712,-237 3482.3712,-237 3482.3712,-237 3485.0309,-237 3485.0309,-237"/>
<polygon fill="#000000" stroke="#000000" points="3485.031,-240.5001 3495.0309,-237 3485.0309,-233.5001 3485.031,-240.5001"/>
</g>
<!-- MatMenuModule  -->
<g id="node30" class="node">
<title>MatMenuModule </title>
<polygon fill="#fb8072" stroke="#000000" points="3477.2591,-255 3358.7409,-255 3358.7409,-219 3477.2591,-219 3477.2591,-255"/>
<text text-anchor="middle" x="3418" y="-232.8" font-family="Times,serif" font-size="14.00" fill="#000000">MatMenuModule </text>
</g>
<!-- MaterialModule&#45;&gt;MatMenuModule  -->
<g id="edge30" class="edge">
<title>MaterialModule&#45;&gt;MatMenuModule </title>
<path fill="none" stroke="#000000" stroke-dasharray="5,2" d="M1791.5229,-157C2078.0864,-157 3418,-157 3418,-157 3418,-157 3418,-208.8468 3418,-208.8468"/>
<polygon fill="#000000" stroke="#000000" points="3414.5001,-208.8467 3418,-218.8468 3421.5001,-208.8468 3414.5001,-208.8467"/>
</g>
<!-- MatToolbarModule  -->
<g id="node31" class="node">
<title>MatToolbarModule </title>
<polygon fill="#fb8072" stroke="#000000" points="3340.918,-255 3211.082,-255 3211.082,-219 3340.918,-219 3340.918,-255"/>
<text text-anchor="middle" x="3276" y="-232.8" font-family="Times,serif" font-size="14.00" fill="#000000">MatToolbarModule </text>
</g>
<!-- MaterialModule&#45;&gt;MatToolbarModule  -->
<g id="edge31" class="edge">
<title>MaterialModule&#45;&gt;MatToolbarModule </title>
<path fill="none" stroke="#000000" stroke-dasharray="5,2" d="M1791.8364,-160C2064.0514,-160 3276,-160 3276,-160 3276,-160 3276,-208.7521 3276,-208.7521"/>
<polygon fill="#000000" stroke="#000000" points="3272.5001,-208.752 3276,-218.7521 3279.5001,-208.7521 3272.5001,-208.752"/>
</g>
<!-- MatIconModule  -->
<g id="node32" class="node">
<title>MatIconModule </title>
<polygon fill="#fb8072" stroke="#000000" points="3193.4758,-255 3082.5242,-255 3082.5242,-219 3193.4758,-219 3193.4758,-255"/>
<text text-anchor="middle" x="3138" y="-232.8" font-family="Times,serif" font-size="14.00" fill="#000000">MatIconModule </text>
</g>
<!-- MaterialModule&#45;&gt;MatIconModule  -->
<g id="edge32" class="edge">
<title>MaterialModule&#45;&gt;MatIconModule </title>
<path fill="none" stroke="#000000" stroke-dasharray="5,2" d="M1791.5972,-163C2048.1056,-163 3138,-163 3138,-163 3138,-163 3138,-208.7079 3138,-208.7079"/>
<polygon fill="#000000" stroke="#000000" points="3134.5001,-208.7078 3138,-218.7079 3141.5001,-208.7079 3134.5001,-208.7078"/>
</g>
<!-- MatCardModule  -->
<g id="node33" class="node">
<title>MatCardModule </title>
<polygon fill="#fb8072" stroke="#000000" points="3064.3116,-255 2951.6884,-255 2951.6884,-219 3064.3116,-219 3064.3116,-255"/>
<text text-anchor="middle" x="3008" y="-232.8" font-family="Times,serif" font-size="14.00" fill="#000000">MatCardModule </text>
</g>
<!-- MaterialModule&#45;&gt;MatCardModule  -->
<g id="edge33" class="edge">
<title>MaterialModule&#45;&gt;MatCardModule </title>
<path fill="none" stroke="#000000" stroke-dasharray="5,2" d="M1791.7591,-165C2033.4846,-165 3008,-165 3008,-165 3008,-165 3008,-208.8314 3008,-208.8314"/>
<polygon fill="#000000" stroke="#000000" points="3004.5001,-208.8313 3008,-218.8314 3011.5001,-208.8314 3004.5001,-208.8313"/>
</g>
<!-- MatFormFieldModule  -->
<g id="node34" class="node">
<title>MatFormFieldModule </title>
<polygon fill="#fb8072" stroke="#000000" points="2933.2121,-255 2788.7879,-255 2788.7879,-219 2933.2121,-219 2933.2121,-255"/>
<text text-anchor="middle" x="2861" y="-232.8" font-family="Times,serif" font-size="14.00" fill="#000000">MatFormFieldModule </text>
</g>
<!-- MaterialModule&#45;&gt;MatFormFieldModule  -->
<g id="edge34" class="edge">
<title>MaterialModule&#45;&gt;MatFormFieldModule </title>
<path fill="none" stroke="#000000" stroke-dasharray="5,2" d="M1791.7863,-168C2015.5368,-168 2861,-168 2861,-168 2861,-168 2861,-208.8711 2861,-208.8711"/>
<polygon fill="#000000" stroke="#000000" points="2857.5001,-208.871 2861,-218.8711 2864.5001,-208.8711 2857.5001,-208.871"/>
</g>
<!-- MatListModule  -->
<g id="node35" class="node">
<title>MatListModule </title>
<polygon fill="#fb8072" stroke="#000000" points="2770.8787,-255 2663.1213,-255 2663.1213,-219 2770.8787,-219 2770.8787,-255"/>
<text text-anchor="middle" x="2717" y="-232.8" font-family="Times,serif" font-size="14.00" fill="#000000">MatListModule </text>
</g>
<!-- MaterialModule&#45;&gt;MatListModule  -->
<g id="edge35" class="edge">
<title>MaterialModule&#45;&gt;MatListModule </title>
<path fill="none" stroke="#000000" stroke-dasharray="5,2" d="M1791.6797,-171C1996.4464,-171 2717,-171 2717,-171 2717,-171 2717,-208.9652 2717,-208.9652"/>
<polygon fill="#000000" stroke="#000000" points="2713.5001,-208.9652 2717,-218.9652 2720.5001,-208.9652 2713.5001,-208.9652"/>
</g>
<!-- MatGridListModule  -->
<g id="node36" class="node">
<title>MatGridListModule </title>
<polygon fill="#fb8072" stroke="#000000" points="2645.5358,-255 2512.4642,-255 2512.4642,-219 2645.5358,-219 2645.5358,-255"/>
<text text-anchor="middle" x="2579" y="-232.8" font-family="Times,serif" font-size="14.00" fill="#000000">MatGridListModule </text>
</g>
<!-- MaterialModule&#45;&gt;MatGridListModule  -->
<g id="edge36" class="edge">
<title>MaterialModule&#45;&gt;MatGridListModule </title>
<path fill="none" stroke="#000000" stroke-dasharray="5,2" d="M1791.5666,-174C1976.8104,-174 2579,-174 2579,-174 2579,-174 2579,-208.7778 2579,-208.7778"/>
<polygon fill="#000000" stroke="#000000" points="2575.5001,-208.7778 2579,-218.7778 2582.5001,-208.7778 2575.5001,-208.7778"/>
</g>
<!-- MatTabsModule  -->
<g id="node37" class="node">
<title>MatTabsModule </title>
<polygon fill="#fb8072" stroke="#000000" points="2494.3116,-255 2381.6884,-255 2381.6884,-219 2494.3116,-219 2494.3116,-255"/>
<text text-anchor="middle" x="2438" y="-232.8" font-family="Times,serif" font-size="14.00" fill="#000000">MatTabsModule </text>
</g>
<!-- MaterialModule&#45;&gt;MatTabsModule  -->
<g id="edge37" class="edge">
<title>MaterialModule&#45;&gt;MatTabsModule </title>
<path fill="none" stroke="#000000" stroke-dasharray="5,2" d="M1791.4766,-176C1955.1116,-176 2438,-176 2438,-176 2438,-176 2438,-208.698 2438,-208.698"/>
<polygon fill="#000000" stroke="#000000" points="2434.5001,-208.698 2438,-218.698 2441.5001,-208.698 2434.5001,-208.698"/>
</g>
<!-- FormsModule  -->
<g id="node38" class="node">
<title>FormsModule </title>
<polygon fill="#fb8072" stroke="#000000" points="2363.3283,-255 2264.6717,-255 2264.6717,-219 2363.3283,-219 2363.3283,-255"/>
<text text-anchor="middle" x="2314" y="-232.8" font-family="Times,serif" font-size="14.00" fill="#000000">FormsModule </text>
</g>
<!-- MaterialModule&#45;&gt;FormsModule  -->
<g id="edge38" class="edge">
<title>MaterialModule&#45;&gt;FormsModule </title>
<path fill="none" stroke="#000000" stroke-dasharray="5,2" d="M1791.6714,-179C1934.6635,-179 2314,-179 2314,-179 2314,-179 2314,-208.9664 2314,-208.9664"/>
<polygon fill="#000000" stroke="#000000" points="2310.5001,-208.9663 2314,-218.9664 2317.5001,-208.9664 2310.5001,-208.9663"/>
</g>
<!-- ReactiveFormsModule  -->
<g id="node39" class="node">
<title>ReactiveFormsModule </title>
<polygon fill="#fb8072" stroke="#000000" points="2246.8045,-255 2099.1955,-255 2099.1955,-219 2246.8045,-219 2246.8045,-255"/>
<text text-anchor="middle" x="2173" y="-232.8" font-family="Times,serif" font-size="14.00" fill="#000000">ReactiveFormsModule </text>
</g>
<!-- MaterialModule&#45;&gt;ReactiveFormsModule  -->
<g id="edge39" class="edge">
<title>MaterialModule&#45;&gt;ReactiveFormsModule </title>
<path fill="none" stroke="#000000" stroke-dasharray="5,2" d="M1791.7758,-182C1908.1604,-182 2173,-182 2173,-182 2173,-182 2173,-208.9909 2173,-208.9909"/>
<polygon fill="#000000" stroke="#000000" points="2169.5001,-208.9909 2173,-218.9909 2176.5001,-208.991 2169.5001,-208.9909"/>
</g>
<!-- MatInputModule  -->
<g id="node40" class="node">
<title>MatInputModule </title>
<polygon fill="#fb8072" stroke="#000000" points="2081.6509,-255 1966.3491,-255 1966.3491,-219 2081.6509,-219 2081.6509,-255"/>
<text text-anchor="middle" x="2024" y="-232.8" font-family="Times,serif" font-size="14.00" fill="#000000">MatInputModule </text>
</g>
<!-- MaterialModule&#45;&gt;MatInputModule  -->
<g id="edge40" class="edge">
<title>MaterialModule&#45;&gt;MatInputModule </title>
<path fill="none" stroke="#000000" stroke-dasharray="5,2" d="M1791.7944,-185C1874.6416,-185 2024,-185 2024,-185 2024,-185 2024,-208.8129 2024,-208.8129"/>
<polygon fill="#000000" stroke="#000000" points="2020.5001,-208.8129 2024,-218.8129 2027.5001,-208.813 2020.5001,-208.8129"/>
</g>
<!-- MatTableModule  -->
<g id="node41" class="node">
<title>MatTableModule </title>
<polygon fill="#fb8072" stroke="#000000" points="1948.973,-255 1831.027,-255 1831.027,-219 1948.973,-219 1948.973,-255"/>
<text text-anchor="middle" x="1890" y="-232.8" font-family="Times,serif" font-size="14.00" fill="#000000">MatTableModule </text>
</g>
<!-- MaterialModule&#45;&gt;MatTableModule  -->
<g id="edge41" class="edge">
<title>MaterialModule&#45;&gt;MatTableModule </title>
<path fill="none" stroke="#000000" stroke-dasharray="5,2" d="M1784.3539,-187.2267C1784.3539,-211.9318 1784.3539,-253 1784.3539,-253 1784.3539,-253 1820.9994,-253 1820.9994,-253"/>
<polygon fill="#000000" stroke="#000000" points="1820.9994,-256.5001 1830.9994,-253 1820.9993,-249.5001 1820.9994,-256.5001"/>
</g>
<!-- CommonModule -->
<g id="node15" class="node">
<title>CommonModule</title>
<polygon fill="#8dd3c7" stroke="#000000" points="3607.6681,-122 3604.6681,-126 3583.6681,-126 3580.6681,-122 3496.3319,-122 3496.3319,-86 3607.6681,-86 3607.6681,-122"/>
<text text-anchor="middle" x="3552" y="-99.8" font-family="Times,serif" font-size="14.00" fill="#000000">CommonModule</text>
</g>
<!-- AppRoutingModule -->
<g id="node16" class="node">
<title>AppRoutingModule</title>
<polygon fill="#8dd3c7" stroke="#000000" points="3616.2744,-187 3613.2744,-191 3592.2744,-191 3589.2744,-187 3487.7256,-187 3487.7256,-151 3616.2744,-151 3616.2744,-187"/>
<text text-anchor="middle" x="3552" y="-164.8" font-family="Times,serif" font-size="14.00" fill="#000000">AppRoutingModule</text>
</g>
<!-- CommonModule&#45;&gt;AppRoutingModule -->
<g id="edge15" class="edge">
<title>CommonModule&#45;&gt;AppRoutingModule</title>
<path fill="none" stroke="#000000" d="M3552,-122.1061C3552,-122.1061 3552,-140.991 3552,-140.991"/>
<polygon fill="#000000" stroke="#000000" points="3548.5001,-140.9909 3552,-150.991 3555.5001,-140.991 3548.5001,-140.9909"/>
</g>
<!-- MatButtonModule -->
<g id="node17" class="node">
<title>MatButtonModule</title>
<polygon fill="#8dd3c7" stroke="#000000" points="5011.2176,-255 5008.2176,-259 4987.2176,-259 4984.2176,-255 4890.7824,-255 4890.7824,-219 5011.2176,-219 5011.2176,-255"/>
<text text-anchor="middle" x="4951" y="-232.8" font-family="Times,serif" font-size="14.00" fill="#000000">MatButtonModule</text>
</g>
<!-- MatButtonModule&#45;&gt;MaterialModule -->
<g id="edge16" class="edge">
<title>MatButtonModule&#45;&gt;MaterialModule</title>
<path fill="none" stroke="#000000" d="M4951,-218.9445C4951,-207.561 4951,-195 4951,-195 4951,-195 1755.8284,-195 1755.8284,-195 1755.8284,-195 1755.8284,-194.2058 1755.8284,-194.2058"/>
<polygon fill="#000000" stroke="#000000" points="1759.3286,-197.0578 1755.8284,-187.0579 1752.3286,-197.0579 1759.3286,-197.0578"/>
</g>
<!-- MatMenuModule -->
<g id="node18" class="node">
<title>MatMenuModule</title>
<polygon fill="#8dd3c7" stroke="#000000" points="4873.2591,-255 4870.2591,-259 4849.2591,-259 4846.2591,-255 4758.7409,-255 4758.7409,-219 4873.2591,-219 4873.2591,-255"/>
<text text-anchor="middle" x="4816" y="-232.8" font-family="Times,serif" font-size="14.00" fill="#000000">MatMenuModule</text>
</g>
<!-- MatMenuModule&#45;&gt;MaterialModule -->
<g id="edge17" class="edge">
<title>MatMenuModule&#45;&gt;MaterialModule</title>
<path fill="none" stroke="#000000" d="M4816,-218.8726C4816,-208.2891 4816,-197 4816,-197 4816,-197 1748.6971,-197 1748.6971,-197 1748.6971,-197 1748.6971,-196.0207 1748.6971,-196.0207"/>
<polygon fill="#000000" stroke="#000000" points="1752.1972,-197.2069 1748.6971,-187.207 1745.1972,-197.207 1752.1972,-197.2069"/>
</g>
<!-- MatToolbarModule -->
<g id="node19" class="node">
<title>MatToolbarModule</title>
<polygon fill="#8dd3c7" stroke="#000000" points="4740.4187,-255 4737.4187,-259 4716.4187,-259 4713.4187,-255 4613.5813,-255 4613.5813,-219 4740.4187,-219 4740.4187,-255"/>
<text text-anchor="middle" x="4677" y="-232.8" font-family="Times,serif" font-size="14.00" fill="#000000">MatToolbarModule</text>
</g>
<!-- MatToolbarModule&#45;&gt;MaterialModule -->
<g id="edge18" class="edge">
<title>MatToolbarModule&#45;&gt;MaterialModule</title>
<path fill="none" stroke="#000000" d="M4677,-218.9336C4677,-209.5413 4677,-200 4677,-200 4677,-200 1741.5657,-200 1741.5657,-200 1741.5657,-200 1741.5657,-197.0328 1741.5657,-197.0328"/>
<polygon fill="#000000" stroke="#000000" points="1745.0658,-197.0328 1741.5657,-187.0328 1738.0658,-197.0329 1745.0658,-197.0328"/>
</g>
<!-- MatIconModule -->
<g id="node20" class="node">
<title>MatIconModule</title>
<polygon fill="#8dd3c7" stroke="#000000" points="4595.4748,-255 4592.4748,-259 4571.4748,-259 4568.4748,-255 4488.5252,-255 4488.5252,-219 4595.4748,-219 4595.4748,-255"/>
<text text-anchor="middle" x="4542" y="-232.8" font-family="Times,serif" font-size="14.00" fill="#000000">MatIconModule</text>
</g>
<!-- MatIconModule&#45;&gt;MaterialModule -->
<g id="edge19" class="edge">
<title>MatIconModule&#45;&gt;MaterialModule</title>
<path fill="none" stroke="#000000" d="M4542,-218.68C4542,-210.2117 4542,-202 4542,-202 4542,-202 1734.4343,-202 1734.4343,-202 1734.4343,-202 1734.4343,-197.0449 1734.4343,-197.0449"/>
<polygon fill="#000000" stroke="#000000" points="1737.9344,-197.0448 1734.4343,-187.0449 1730.9344,-197.0449 1737.9344,-197.0448"/>
</g>
<!-- MatCardModule -->
<g id="node21" class="node">
<title>MatCardModule</title>
<polygon fill="#8dd3c7" stroke="#000000" points="4470.8118,-255 4467.8118,-259 4446.8118,-259 4443.8118,-255 4361.1882,-255 4361.1882,-219 4470.8118,-219 4470.8118,-255"/>
<text text-anchor="middle" x="4416" y="-232.8" font-family="Times,serif" font-size="14.00" fill="#000000">MatCardModule</text>
</g>
<!-- MatCardModule&#45;&gt;MaterialModule -->
<g id="edge20" class="edge">
<title>MatCardModule&#45;&gt;MaterialModule</title>
<path fill="none" stroke="#000000" d="M4416,-218.7566C4416,-211.5703 4416,-205 4416,-205 4416,-205 1727.3029,-205 1727.3029,-205 1727.3029,-205 1727.3029,-197.4218 1727.3029,-197.4218"/>
<polygon fill="#000000" stroke="#000000" points="1730.803,-197.4218 1727.3029,-187.4218 1723.803,-197.4219 1730.803,-197.4218"/>
</g>
<!-- MatFormFieldModule -->
<g id="node22" class="node">
<title>MatFormFieldModule</title>
<polygon fill="#8dd3c7" stroke="#000000" points="4343.712,-255 4340.712,-259 4319.712,-259 4316.712,-255 4202.288,-255 4202.288,-219 4343.712,-219 4343.712,-255"/>
<text text-anchor="middle" x="4273" y="-232.8" font-family="Times,serif" font-size="14.00" fill="#000000">MatFormFieldModule</text>
</g>
<!-- MatFormFieldModule&#45;&gt;MaterialModule -->
<g id="edge21" class="edge">
<title>MatFormFieldModule&#45;&gt;MaterialModule</title>
<path fill="none" stroke="#000000" d="M4273,-218.8568C4273,-212.5389 4273,-207 4273,-207 4273,-207 1720.1716,-207 1720.1716,-207 1720.1716,-207 1720.1716,-197.1097 1720.1716,-197.1097"/>
<polygon fill="#000000" stroke="#000000" points="1723.6717,-197.1096 1720.1716,-187.1097 1716.6717,-197.1097 1723.6717,-197.1096"/>
</g>
<!-- MatListModule -->
<g id="node23" class="node">
<title>MatListModule</title>
<polygon fill="#8dd3c7" stroke="#000000" points="4183.8781,-255 4180.8781,-259 4159.8781,-259 4156.8781,-255 4080.1219,-255 4080.1219,-219 4183.8781,-219 4183.8781,-255"/>
<text text-anchor="middle" x="4132" y="-232.8" font-family="Times,serif" font-size="14.00" fill="#000000">MatListModule</text>
</g>
<!-- MatListModule&#45;&gt;MaterialModule -->
<g id="edge22" class="edge">
<title>MatListModule&#45;&gt;MaterialModule</title>
<path fill="none" stroke="#000000" d="M4132,-218.8408C4132,-213.9567 4132,-210 4132,-210 4132,-210 1713.0402,-210 1713.0402,-210 1713.0402,-210 1713.0402,-197.1025 1713.0402,-197.1025"/>
<polygon fill="#000000" stroke="#000000" points="1716.5403,-197.1025 1713.0402,-187.1025 1709.5403,-197.1026 1716.5403,-197.1025"/>
</g>
<!-- MatGridListModule -->
<g id="node24" class="node">
<title>MatGridListModule</title>
<polygon fill="#8dd3c7" stroke="#000000" points="4061.5366,-255 4058.5366,-259 4037.5366,-259 4034.5366,-255 3932.4634,-255 3932.4634,-219 4061.5366,-219 4061.5366,-255"/>
<text text-anchor="middle" x="3997" y="-232.8" font-family="Times,serif" font-size="14.00" fill="#000000">MatGridListModule</text>
</g>
<!-- MatGridListModule&#45;&gt;MaterialModule -->
<g id="edge23" class="edge">
<title>MatGridListModule&#45;&gt;MaterialModule</title>
<path fill="none" stroke="#000000" d="M3997,-218.8314C3997,-214.9541 3997,-212 3997,-212 3997,-212 1705.9088,-212 1705.9088,-212 1705.9088,-212 1705.9088,-197.4854 1705.9088,-197.4854"/>
<polygon fill="#000000" stroke="#000000" points="1709.4089,-197.4854 1705.9088,-187.4854 1702.4089,-197.4855 1709.4089,-197.4854"/>
</g>
<!-- MatTabsModule -->
<g id="node25" class="node">
<title>MatTabsModule</title>
<polygon fill="#8dd3c7" stroke="#000000" points="3914.8118,-255 3911.8118,-259 3890.8118,-259 3887.8118,-255 3805.1882,-255 3805.1882,-219 3914.8118,-219 3914.8118,-255"/>
<text text-anchor="middle" x="3860" y="-232.8" font-family="Times,serif" font-size="14.00" fill="#000000">MatTabsModule</text>
</g>
<!-- MatTabsModule&#45;&gt;MaterialModule -->
<g id="edge24" class="edge">
<title>MatTabsModule&#45;&gt;MaterialModule</title>
<path fill="none" stroke="#000000" d="M3860,-218.8321C3860,-216.5522 3860,-215 3860,-215 3860,-215 1698.7774,-215 1698.7774,-215 1698.7774,-215 1698.7774,-197.1804 1698.7774,-197.1804"/>
<polygon fill="#000000" stroke="#000000" points="1702.2775,-197.1804 1698.7774,-187.1804 1695.2775,-197.1805 1702.2775,-197.1804"/>
</g>
<!-- ReactiveFormsModule -->
<g id="node26" class="node">
<title>ReactiveFormsModule</title>
<polygon fill="#8dd3c7" stroke="#000000" points="3787.3047,-255 3784.3047,-259 3763.3047,-259 3760.3047,-255 3642.6953,-255 3642.6953,-219 3787.3047,-219 3787.3047,-255"/>
<text text-anchor="middle" x="3715" y="-232.8" font-family="Times,serif" font-size="14.00" fill="#000000">ReactiveFormsModule</text>
</g>
<!-- ReactiveFormsModule&#45;&gt;MaterialModule -->
<g id="edge26" class="edge">
<title>ReactiveFormsModule&#45;&gt;MaterialModule</title>
<path fill="none" stroke="#000000" d="M3715,-218.8457C3715,-217.7031 3715,-217 3715,-217 3715,-217 1691.6461,-217 1691.6461,-217 1691.6461,-217 1691.6461,-197.1467 1691.6461,-197.1467"/>
<polygon fill="#000000" stroke="#000000" points="1695.1462,-197.1467 1691.6461,-187.1467 1688.1462,-197.1468 1695.1462,-197.1467"/>
</g>
<!-- MatInputModule -->
<g id="node27" class="node">
<title>MatInputModule</title>
<polygon fill="#8dd3c7" stroke="#000000" points="5272.6513,-255 5269.6513,-259 5248.6513,-259 5245.6513,-255 5161.3487,-255 5161.3487,-219 5272.6513,-219 5272.6513,-255"/>
<text text-anchor="middle" x="5217" y="-232.8" font-family="Times,serif" font-size="14.00" fill="#000000">MatInputModule</text>
</g>
<!-- MatInputModule&#45;&gt;MaterialModule -->
<g id="edge27" class="edge">
<title>MatInputModule&#45;&gt;MaterialModule</title>
<path fill="none" stroke="#000000" d="M5217,-218.963C5217,-205.7087 5217,-190 5217,-190 5217,-190 1770.0912,-190 1770.0912,-190 1770.0912,-190 1770.0912,-189.708 1770.0912,-189.708"/>
<polygon fill="#000000" stroke="#000000" points="1773.5916,-197.0799 1770.0912,-187.08 1766.5916,-197.0802 1773.5916,-197.0799"/>
</g>
<!-- MatTableModule -->
<g id="node28" class="node">
<title>MatTableModule</title>
<polygon fill="#8dd3c7" stroke="#000000" points="5142.972,-255 5139.972,-259 5118.972,-259 5115.972,-255 5029.028,-255 5029.028,-219 5142.972,-219 5142.972,-255"/>
<text text-anchor="middle" x="5086" y="-232.8" font-family="Times,serif" font-size="14.00" fill="#000000">MatTableModule</text>
</g>
<!-- MatTableModule&#45;&gt;MaterialModule -->
<g id="edge28" class="edge">
<title>MatTableModule&#45;&gt;MaterialModule</title>
<path fill="none" stroke="#000000" d="M5086,-218.9561C5086,-206.4367 5086,-192 5086,-192 5086,-192 1762.9598,-192 1762.9598,-192 1762.9598,-192 1762.9598,-191.5122 1762.9598,-191.5122"/>
<polygon fill="#000000" stroke="#000000" points="1766.46,-197.1222 1762.9598,-187.1223 1759.46,-197.1224 1766.46,-197.1222"/>
</g>
</g>
</svg>
